Coordinates
version=1
nRows=16
nColumns=42
inDegrees=yes

Units are S.I. units (second, meters, Newtons, ...)
If the header above contains a line with 'inDegrees', this indicates whether rotational values are in degrees (yes) or radians (no).

endheader
time	pelvis_tilt	pelvis_list	pelvis_rotation	pelvis_tx	pelvis_ty	pelvis_tz	hip_flexion_r	hip_adduction_r	hip_rotation_r	knee_angle_r	knee_adduction_r	knee_angle_r_beta	ankle_angle_r	subtalar_angle_r	mtp_angle_r	hip_flexion_l	hip_adduction_l	hip_rotation_l	knee_angle_l	knee_adduction_l	knee_angle_l_beta	ankle_angle_l	subtalar_angle_l	mtp_angle_l	lumbar_extension	lumbar_bending	lumbar_rotation	arm_flex_r	arm_add_r	arm_rot_r	elbow_flex_r	pro_sup_r	wrist_flex_r	wrist_dev_r	arm_flex_l	arm_add_l	arm_rot_l	elbow_flex_l	pro_sup_l	wrist_flex_l	wrist_dev_l
      0.50000000	      6.71831123	     -2.02413007	      5.01368792	     -1.07062970	      0.88407913	     -0.16070750	      1.36163004	      2.69176911	    -23.45530599	     28.05666568	     -3.73038064	      0.48968119	     23.37316269	     33.67293160	     -9.55705436	      9.42464975	     -2.75750282	      4.16932569	     56.52302102	     -3.93123042	      0.98651282	      5.42855903	     -6.41473273	     -9.55705436	    -30.97443979	      6.16455807	     -2.33021160	      8.05123781	    -11.38767362	    -15.15014718	     41.92732716	     90.00000001	      0.00000000	      0.00000000	     17.13211711	     -8.56402149	     29.88987143	     54.06624716	     90.00000001	      0.00000000	      0.00000000
      0.51000000	      6.66184376	     -2.01613199	      5.06515945	     -1.06819677	      0.88402434	     -0.16031486	      1.12030767	      2.70237670	    -23.41384061	     27.87610887	     -3.56281955	      0.48652988	     23.45919488	     33.57235700	     -9.53349538	     10.17251598	     -2.67197512	      4.21578983	     56.35202092	     -3.82462417	      0.98352831	      5.61223307	     -6.24213446	     -9.53349538	    -30.90052132	      6.15715380	     -2.37840488	      8.03754014	    -11.37870049	    -15.09419821	     41.98888534	     90.00000001	      0.00000000	      0.00000000	     17.27766047	     -8.51919455	     29.90477883	     54.18649874	     90.00000001	      0.00000000	      0.00000000
      0.52000000	      6.61174660	     -2.02438303	      5.15554799	     -1.06578549	      0.88394773	     -0.16000536	      0.86331252	      2.73351993	    -23.39745836	     27.67868112	     -3.38906780	      0.48308412	     23.55555850	     33.50622726	     -9.51071134	     10.93528435	     -2.62415194	      4.31492094	     56.21389496	     -3.68026888	      0.98111755	      5.80506784	     -5.95716104	     -9.51071134	    -30.83047590	      6.18372749	     -2.45464233	      8.01923258	    -11.36131561	    -15.02491464	     42.05615340	     90.00000001	      0.00000000	      0.00000000	     17.42701674	     -8.48796169	     29.94589342	     54.30705011	     90.00000001	      0.00000000	      0.00000000
      0.53000000	      6.55967961	     -2.08256990	      5.32721760	     -1.06344849	      0.88383833	     -0.15979121	      0.60451827	      2.83090510	    -23.41601247	     27.42987012	     -3.21371399	      0.47874155	     23.68404511	     33.53518872	     -9.47882437	     11.73552678	     -2.62666226	      4.60453596	     56.14190708	     -3.49185591	      0.97986113	      6.09558450	     -5.40126770	     -9.47882437	    -30.75174129	      6.30610001	     -2.59375322	      8.01777732	    -11.34004490	    -14.90636045	     42.17657660	     90.00000001	      0.00000000	      0.00000000	     17.57100469	     -8.52800573	     30.04373397	     54.41288071	     90.00000001	      0.00000000	      0.00000000
      0.54000000	      6.49660038	     -2.16897187	      5.48142554	     -1.06104192	      0.88365490	     -0.15951879	      0.39888201	      2.97331190	    -23.52192856	     27.25614616	     -3.12334346	      0.47570949	     23.71350440	     33.48696717	     -9.42688923	     12.54568386	     -2.71986002	      4.81172787	     56.06784693	     -3.29491040	      0.97856853	      6.48541646	     -4.58216386	     -9.42688923	    -30.64211774	      6.42901541	     -2.66513389	      7.92367382	    -11.36220031	    -14.71489672	     42.33131626	     90.00000001	      0.00000000	      0.00000000	     17.69792382	     -8.53727220	     30.13354251	     54.52815815	     90.00000001	      0.00000000	      0.00000000
      0.55000000	      6.47812004	     -2.13574701	      5.44311115	     -1.05870972	      0.88363274	     -0.15910613	      0.23049763	      2.96020703	    -23.46019372	     27.27736022	     -3.05597711	      0.47607975	     23.65083960	     33.21683563	     -9.40934616	     13.21400084	     -2.68411222	      4.72252353	     55.88706734	     -3.22550903	      0.97541333	      6.53461153	     -4.39430012	     -9.40934616	    -30.63631838	      6.35532942	     -2.62633161	      7.90902670	    -11.34105379	    -14.65443576	     42.42451502	     90.00000001	      0.00000000	      0.00000000	     17.85114335	     -8.51282260	     30.05819591	     54.62884725	     90.00000001	      0.00000000	      0.00000000
      0.56000000	      6.44080250	     -2.09316361	      5.52462533	     -1.05619972	      0.88357219	     -0.15892520	     -0.04240742	      2.95076099	    -23.52174978	     27.05492552	     -2.97674797	      0.47219753	     23.76402919	     33.19039613	     -9.39775960	     13.87544243	     -2.57092427	      4.77418660	     55.66277231	     -3.23935367	      0.97149865	      6.65599164	     -4.17972724	     -9.39775960	    -30.55225040	      6.33501290	     -2.68873604	      7.84355029	    -11.32658323	    -14.59590954	     42.47319572	     90.00000001	      0.00000000	      0.00000000	     17.94150127	     -8.50843790	     30.06136525	     54.62612031	     90.00000001	      0.00000000	      0.00000000
      0.57000000	      6.46693309	     -2.14157881	      5.80375131	     -1.05366136	      0.88348543	     -0.15896873	     -0.39119960	      3.06404985	    -23.68578690	     26.82507123	     -2.88226520	      0.46818582	     23.92358552	     33.42371236	     -9.33844198	     14.52463409	     -2.59537768	      4.95235179	     55.49117184	     -3.24449257	      0.96850365	      7.20611183	     -2.68434296	     -9.33844198	    -30.49825782	      6.49594699	     -2.90150296	      7.65088850	    -11.35925883	    -14.22091069	     42.80374743	     90.00000001	      0.00000000	      0.00000000	     18.01968007	     -8.50632377	     30.12236438	     54.58174511	     90.00000001	      0.00000000	      0.00000000
      0.58000000	      6.44096323	     -2.10953261	      5.78112659	     -1.05128965	      0.88343763	     -0.15865407	     -0.56771897	      3.06974872	    -23.65691669	     26.78281544	     -2.85846305	      0.46744831	     23.91933634	     33.24985252	     -9.32262596	     15.12868499	     -2.55112763	      4.85524853	     55.21756370	     -3.29536274	      0.96372829	      7.29758574	     -2.52868175	     -9.32262596	    -30.46587573	      6.44132638	     -2.89427938	      7.65599761	    -11.34908463	    -14.15087906	     42.89309816	     90.00000001	      0.00000000	      0.00000000	     18.12275509	     -8.56114013	     30.05308861	     54.59271217	     90.00000001	      0.00000000	      0.00000000
      0.59000000	      6.56216128	     -2.04379658	      5.83694697	     -1.04860171	      0.88356915	     -0.15850817	     -0.99331124	      3.06060452	    -23.70192932	     26.62995901	     -2.83254941	      0.46478046	     24.07711899	     33.47036563	     -9.24500701	     15.50366259	     -2.46598432	      4.39091796	     54.79440371	     -3.74617692	      0.95634276	      7.83521702	     -0.98311931	     -9.24500701	    -30.53499868	      6.39511537	     -2.96459630	      7.47659977	    -11.42613499	    -13.64969017	     43.22279718	     90.00000001	      0.00000000	      0.00000000	     18.19971603	     -8.54096914	     29.94932751	     54.42595966	     90.00000001	      0.00000000	      0.00000000
      0.60000000	      6.54052455	     -2.02250875	      5.84684534	     -1.04614282	      0.88349144	     -0.15830132	     -1.16235888	      3.09165676	    -23.64904877	     26.60093995	     -2.84199762	      0.46427399	     24.08993054	     33.32634566	     -9.22785807	     16.03770138	     -2.44150105	      4.28292460	     54.40396466	     -3.82435049	      0.94952831	      7.93596800	     -0.84790013	     -9.22785807	    -30.47975235	      6.37262158	     -2.99445050	      7.44316087	    -11.41429863	    -13.57898406	     43.30165502	     90.00000001	      0.00000000	      0.00000000	     18.23606932	     -8.60516156	     29.88813655	     54.39804420	     90.00000001	      0.00000000	      0.00000000
      0.61000000	      6.57011851	     -1.96615669	      5.85131072	     -1.04369282	      0.88352076	     -0.15813777	     -1.39581788	      3.08577774	    -23.59041590	     26.57607178	     -2.85020559	      0.46383995	     24.17072764	     33.26406455	     -9.20331437	     16.47985734	     -2.37025831	      4.08733417	     53.92523389	     -4.00629676	      0.94117288	      8.11806562	     -0.42920182	     -9.20331437	    -30.48529112	      6.30966789	     -3.02724399	      7.40010146	    -11.39702072	    -13.41006400	     43.47791387	     90.00000001	      0.00000000	      0.00000000	     18.30507235	     -8.64111717	     29.77819519	     54.25374382	     90.00000001	      0.00000000	      0.00000000
      0.62000000	      6.54990752	     -1.97050233	      5.82406837	     -1.04116132	      0.88339949	     -0.15790785	     -1.53641643	      3.11490593	    -23.52368176	     26.64513550	     -2.82035651	      0.46504534	     24.15937200	     33.07311615	     -9.18622498	     16.94697140	     -2.41487428	      3.91600856	     53.40356912	     -4.08132037	      0.93206811	      8.23206959	     -0.20715297	     -9.18622498	    -30.40863922	      6.29071130	     -3.01695517	      7.36635917	    -11.39853198	    -13.30519303	     43.62198015	     90.00000001	      0.00000000	      0.00000000	     18.29633647	     -8.69388097	     29.68019501	     54.20057121	     90.00000001	      0.00000000	      0.00000000
      0.63000000	      6.54768676	     -1.96089545	      5.79833221	     -1.03861946	      0.88334424	     -0.15774975	     -1.69423368	      3.15762407	    -23.44584497	     26.67728381	     -2.87084212	      0.46560644	     24.22346340	     32.98395593	     -9.16943935	     17.31901240	     -2.41353579	      3.70090897	     52.72660419	     -4.26135128	      0.92025285	      8.42965759	      0.12100781	     -9.16943935	    -30.36175775	      6.25381361	     -3.03958687	      7.32446235	    -11.41593228	    -13.14566790	     43.79747025	     90.00000001	      0.00000000	      0.00000000	     18.28548816	     -8.74279270	     29.55941224	     54.03165643	     90.00000001	      0.00000000	      0.00000000
      0.64000000	      6.89712204	     -1.68944295	      5.50383864	     -1.03574299	      0.88388523	     -0.15734853	     -2.28868767	      2.84582211	    -23.31556120	     26.79511962	     -2.84962109	      0.46766306	     24.43981849	     33.26360187	     -9.11098146	     17.12990252	     -2.23211047	      2.48736029	     51.78583698	     -4.99542356	      0.90383336	      9.08352494	      2.06757159	     -9.11098146	    -30.71266712	      5.86123020	     -2.85756233	      7.10607067	    -11.61534170	    -12.29891140	     44.28118405	     90.00000001	      0.00000000	      0.00000000	     18.41005804	     -8.67349792	     29.03973329	     53.53434174	     90.00000001	      0.00000000	      0.00000000
      0.65000000	      7.01821334	     -1.69665968	      5.36068376	     -1.03300891	      0.88397839	     -0.15717223	     -2.57581843	      2.89845482	    -23.16891704	     26.84178055	     -2.91973203	      0.46847745	     24.36724276	     33.33487527	     -9.04025171	     17.29858362	     -2.29920148	      1.75803184	     50.95678106	     -5.46594666	      0.88936361	      9.47240179	      3.32070504	     -9.04025171	    -30.79580271	      5.82708416	     -2.80246211	      7.09559802	    -11.72129666	    -11.67321761	     44.45644369	     90.00000001	      0.00000000	      0.00000000	     18.25896468	     -8.72652774	     28.84423912	     53.55199288	     90.00000001	      0.00000000	      0.00000000
